# xmcd
#
# Track frame offsets: 
#        150
#        20212
#        43469
#        63452
#        75561
#        96969
#        124052
#        144834
#        167498
#        183747
#        207253
#        238220
#        254740
#        275296
#        297157
#        316422
#
# Disc length: 4424 seconds
#
# Revision: 0
# Processed by: cddbd v1.5.2PL0 Copyright (c) Steve Scherf et al.
# Submitted via: ExactAudioCopy v0.95b4
#
DISCID=f6114610
DTITLE=Immanuel Gospel - Go Tell It!
DYEAR=2005
DGENRE=Gospel
TTITLE0=Halleluja-kören ur Händels Messias
TTITLE1=The night that Christ was born
TTITLE2=Jesus is the reason
TTITLE3=God's got a blessing
TTITLE4=White Christmas
TTITLE5=The first noël
TTITLE6=Hallelujah
TTITLE7=Joy to the world
TTITLE8=Come, all ye faithful
TTITLE9=There's no Christmas without you
TTITLE10=Now, behold the Lamb
TTITLE11=Santa Claus is back in town
TTITLE12=O, helga natt (Adams julsång)
TTITLE13=Children, go where I send thee
TTITLE14=The prayer
TTITLE15=Til we meet again
EXTD=
EXTT0=
EXTT1=
EXTT2=
EXTT3=
EXTT4=
EXTT5=
EXTT6=
EXTT7=
EXTT8=
EXTT9=
EXTT10=
EXTT11=
EXTT12=
EXTT13=
EXTT14=
EXTT15=
PLAYORDER=
